<svg xmlns="http://www.w3.org/2000/svg"  viewBox="0 0 24 24" width="24px" height="24px" baseProfile="basic"><linearGradient id="SzJtKsM3bBH3imAuhghAqa" x1="12" x2="12" y1="2.002" y2="21.997" gradientUnits="userSpaceOnUse"><stop offset="0" stop-color="#fae500"/><stop offset="1" stop-color="#ffae42"/></linearGradient><path fill="url(#SzJtKsM3bBH3imAuhghAqa)" d="M21.6,12.83l-2.13,1.71c-0.29,0.22-0.44,0.58-0.4,0.95l0.31,2.71	c0.07,0.68-0.5,1.25-1.18,1.18l-2.71-0.31c-0.37-0.04-0.73,0.11-0.95,0.4l-1.71,2.13c-0.42,0.53-1.24,0.53-1.66,0l-1.71-2.13	c-0.22-0.29-0.58-0.44-0.95-0.4L5.8,19.38c-0.68,0.07-1.25-0.5-1.18-1.18l0.31-2.71c0.04-0.37-0.11-0.73-0.4-0.95L2.4,12.83	c-0.53-0.42-0.53-1.24,0-1.66l2.13-1.71c0.29-0.22,0.44-0.58,0.4-0.95L4.62,5.8C4.55,5.12,5.12,4.55,5.8,4.62l2.71,0.31	c0.37,0.04,0.73-0.11,0.95-0.4l1.71-2.13c0.42-0.53,1.24-0.53,1.66,0l1.71,2.13c0.22,0.29,0.58,0.44,0.95,0.4l2.71-0.31	c0.68-0.07,1.25,0.5,1.18,1.18l-0.31,2.71c-0.04,0.37,0.11,0.73,0.4,0.95l2.13,1.71C22.13,11.59,22.13,12.41,21.6,12.83z"/><linearGradient id="SzJtKsM3bBH3imAuhghAqb" x1="12" x2="12" y1="3.173" y2="22.312" gradientUnits="userSpaceOnUse"><stop offset="0" stop-color="#fff"/><stop offset="1" stop-color="#fff266"/></linearGradient><circle cx="12" cy="12" r="5" fill="url(#SzJtKsM3bBH3imAuhghAqb)"/></svg>